<mxfile host="app.diagrams.net" modified="2022-05-05T08:13:57.175Z" agent="5.0 (Macintosh; Intel Mac OS X 10_15_7) AppleWebKit/537.36 (KHTML, like Gecko) Chrome/100.0.4896.127 Safari/537.36" etag="15NY83_otHUp5IRmI6_v" version="17.5.0" type="github">
  <diagram id="fqNZsGz2vK53wA8MXkew" name="第 1 页">
    <mxGraphModel dx="1256" dy="742" grid="1" gridSize="10" guides="1" tooltips="1" connect="1" arrows="1" fold="1" page="1" pageScale="1" pageWidth="850" pageHeight="1100" math="0" shadow="0">
      <root>
        <mxCell id="0" />
        <mxCell id="1" parent="0" />
        <mxCell id="5dnn9-Qjzr6ONwOQlq-D-1" style="edgeStyle=orthogonalEdgeStyle;rounded=0;orthogonalLoop=1;jettySize=auto;html=1;exitX=0.5;exitY=1;exitDx=0;exitDy=0;entryX=0.5;entryY=0;entryDx=0;entryDy=0;" edge="1" parent="1" source="5dnn9-Qjzr6ONwOQlq-D-2" target="5dnn9-Qjzr6ONwOQlq-D-6">
          <mxGeometry relative="1" as="geometry" />
        </mxCell>
        <mxCell id="5dnn9-Qjzr6ONwOQlq-D-2" value="组建当日参数" style="shape=parallelogram;html=1;strokeWidth=2;perimeter=parallelogramPerimeter;whiteSpace=wrap;rounded=1;arcSize=12;size=0.23;" vertex="1" parent="1">
          <mxGeometry x="230" y="140" width="100" height="60" as="geometry" />
        </mxCell>
        <mxCell id="5dnn9-Qjzr6ONwOQlq-D-3" style="edgeStyle=orthogonalEdgeStyle;rounded=0;orthogonalLoop=1;jettySize=auto;html=1;exitX=0.5;exitY=1;exitDx=0;exitDy=0;exitPerimeter=0;entryX=0.5;entryY=0;entryDx=0;entryDy=0;" edge="1" parent="1" source="5dnn9-Qjzr6ONwOQlq-D-4" target="5dnn9-Qjzr6ONwOQlq-D-2">
          <mxGeometry relative="1" as="geometry" />
        </mxCell>
        <mxCell id="5dnn9-Qjzr6ONwOQlq-D-4" value="开始" style="strokeWidth=2;html=1;shape=mxgraph.flowchart.start_1;whiteSpace=wrap;" vertex="1" parent="1">
          <mxGeometry x="230" y="40" width="100" height="60" as="geometry" />
        </mxCell>
        <mxCell id="5dnn9-Qjzr6ONwOQlq-D-5" style="edgeStyle=orthogonalEdgeStyle;rounded=0;orthogonalLoop=1;jettySize=auto;html=1;exitX=1;exitY=0.5;exitDx=0;exitDy=0;entryX=0;entryY=0.5;entryDx=0;entryDy=0;entryPerimeter=0;" edge="1" parent="1" source="5dnn9-Qjzr6ONwOQlq-D-6" target="5dnn9-Qjzr6ONwOQlq-D-11">
          <mxGeometry relative="1" as="geometry" />
        </mxCell>
        <mxCell id="5dnn9-Qjzr6ONwOQlq-D-6" value="&lt;font style=&quot;font-size: 10px&quot;&gt;API获取当日&lt;br&gt;公司研究&lt;br&gt;报告列表&lt;/font&gt;" style="shape=parallelogram;html=1;strokeWidth=2;perimeter=parallelogramPerimeter;whiteSpace=wrap;rounded=1;arcSize=12;size=0.23;align=center;" vertex="1" parent="1">
          <mxGeometry x="230" y="250" width="100" height="60" as="geometry" />
        </mxCell>
        <mxCell id="5dnn9-Qjzr6ONwOQlq-D-7" style="edgeStyle=orthogonalEdgeStyle;rounded=0;orthogonalLoop=1;jettySize=auto;html=1;exitX=1;exitY=0.5;exitDx=0;exitDy=0;exitPerimeter=0;entryX=0.5;entryY=0;entryDx=0;entryDy=0;" edge="1" parent="1" source="5dnn9-Qjzr6ONwOQlq-D-11" target="5dnn9-Qjzr6ONwOQlq-D-13">
          <mxGeometry relative="1" as="geometry" />
        </mxCell>
        <mxCell id="5dnn9-Qjzr6ONwOQlq-D-8" value="是" style="edgeLabel;html=1;align=center;verticalAlign=middle;resizable=0;points=[];" vertex="1" connectable="0" parent="5dnn9-Qjzr6ONwOQlq-D-7">
          <mxGeometry x="-0.6857" y="3" relative="1" as="geometry">
            <mxPoint x="-3" y="56" as="offset" />
          </mxGeometry>
        </mxCell>
        <mxCell id="5dnn9-Qjzr6ONwOQlq-D-9" style="edgeStyle=orthogonalEdgeStyle;rounded=0;orthogonalLoop=1;jettySize=auto;html=1;exitX=0.5;exitY=1;exitDx=0;exitDy=0;exitPerimeter=0;entryX=1;entryY=0.5;entryDx=0;entryDy=0;entryPerimeter=0;" edge="1" parent="1" source="5dnn9-Qjzr6ONwOQlq-D-11" target="5dnn9-Qjzr6ONwOQlq-D-19">
          <mxGeometry relative="1" as="geometry" />
        </mxCell>
        <mxCell id="5dnn9-Qjzr6ONwOQlq-D-10" value="否" style="edgeLabel;html=1;align=center;verticalAlign=middle;resizable=0;points=[];" vertex="1" connectable="0" parent="5dnn9-Qjzr6ONwOQlq-D-9">
          <mxGeometry x="-0.6211" y="-2" relative="1" as="geometry">
            <mxPoint as="offset" />
          </mxGeometry>
        </mxCell>
        <mxCell id="5dnn9-Qjzr6ONwOQlq-D-11" value="是否出错" style="strokeWidth=2;html=1;shape=mxgraph.flowchart.decision;whiteSpace=wrap;" vertex="1" parent="1">
          <mxGeometry x="380" y="245" width="90" height="70" as="geometry" />
        </mxCell>
        <mxCell id="5dnn9-Qjzr6ONwOQlq-D-12" style="edgeStyle=orthogonalEdgeStyle;rounded=0;orthogonalLoop=1;jettySize=auto;html=1;exitX=0.5;exitY=1;exitDx=0;exitDy=0;entryX=1;entryY=0.5;entryDx=0;entryDy=0;entryPerimeter=0;" edge="1" parent="1" source="5dnn9-Qjzr6ONwOQlq-D-13" target="5dnn9-Qjzr6ONwOQlq-D-14">
          <mxGeometry relative="1" as="geometry" />
        </mxCell>
        <mxCell id="5dnn9-Qjzr6ONwOQlq-D-13" value="写入错误日志" style="shape=parallelogram;html=1;strokeWidth=2;perimeter=parallelogramPerimeter;whiteSpace=wrap;rounded=1;arcSize=12;size=0.23;" vertex="1" parent="1">
          <mxGeometry x="440" y="410" width="100" height="60" as="geometry" />
        </mxCell>
        <mxCell id="5dnn9-Qjzr6ONwOQlq-D-14" value="结束" style="strokeWidth=2;html=1;shape=mxgraph.flowchart.start_1;whiteSpace=wrap;" vertex="1" parent="1">
          <mxGeometry x="235" y="555" width="100" height="60" as="geometry" />
        </mxCell>
        <mxCell id="5dnn9-Qjzr6ONwOQlq-D-15" style="edgeStyle=orthogonalEdgeStyle;rounded=0;orthogonalLoop=1;jettySize=auto;html=1;exitX=0.5;exitY=1;exitDx=0;exitDy=0;exitPerimeter=0;" edge="1" parent="1" source="5dnn9-Qjzr6ONwOQlq-D-19" target="5dnn9-Qjzr6ONwOQlq-D-14">
          <mxGeometry relative="1" as="geometry" />
        </mxCell>
        <mxCell id="5dnn9-Qjzr6ONwOQlq-D-16" value="是" style="edgeLabel;html=1;align=center;verticalAlign=middle;resizable=0;points=[];" vertex="1" connectable="0" parent="5dnn9-Qjzr6ONwOQlq-D-15">
          <mxGeometry x="-0.28" relative="1" as="geometry">
            <mxPoint as="offset" />
          </mxGeometry>
        </mxCell>
        <mxCell id="5dnn9-Qjzr6ONwOQlq-D-17" style="edgeStyle=orthogonalEdgeStyle;rounded=0;orthogonalLoop=1;jettySize=auto;html=1;exitX=0.5;exitY=0;exitDx=0;exitDy=0;exitPerimeter=0;entryX=0.5;entryY=0;entryDx=0;entryDy=0;" edge="1" parent="1" source="5dnn9-Qjzr6ONwOQlq-D-19" target="5dnn9-Qjzr6ONwOQlq-D-21">
          <mxGeometry relative="1" as="geometry" />
        </mxCell>
        <mxCell id="5dnn9-Qjzr6ONwOQlq-D-18" value="否" style="edgeLabel;html=1;align=center;verticalAlign=middle;resizable=0;points=[];" vertex="1" connectable="0" parent="5dnn9-Qjzr6ONwOQlq-D-17">
          <mxGeometry x="0.0737" y="-1" relative="1" as="geometry">
            <mxPoint as="offset" />
          </mxGeometry>
        </mxCell>
        <mxCell id="5dnn9-Qjzr6ONwOQlq-D-19" value="是否是最后一条" style="strokeWidth=2;html=1;shape=mxgraph.flowchart.decision;whiteSpace=wrap;" vertex="1" parent="1">
          <mxGeometry x="240" y="340" width="90" height="70" as="geometry" />
        </mxCell>
        <mxCell id="5dnn9-Qjzr6ONwOQlq-D-20" style="edgeStyle=orthogonalEdgeStyle;rounded=0;orthogonalLoop=1;jettySize=auto;html=1;exitX=0.5;exitY=1;exitDx=0;exitDy=0;" edge="1" parent="1" source="5dnn9-Qjzr6ONwOQlq-D-21" target="5dnn9-Qjzr6ONwOQlq-D-23">
          <mxGeometry relative="1" as="geometry" />
        </mxCell>
        <mxCell id="5dnn9-Qjzr6ONwOQlq-D-21" value="获取当前列表&lt;br&gt;项研报信息" style="shape=parallelogram;html=1;strokeWidth=2;perimeter=parallelogramPerimeter;whiteSpace=wrap;rounded=1;arcSize=12;size=0.23;" vertex="1" parent="1">
          <mxGeometry x="90" y="345" width="100" height="60" as="geometry" />
        </mxCell>
        <mxCell id="5dnn9-Qjzr6ONwOQlq-D-22" style="edgeStyle=orthogonalEdgeStyle;rounded=0;orthogonalLoop=1;jettySize=auto;html=1;exitX=0.5;exitY=1;exitDx=0;exitDy=0;" edge="1" parent="1" source="5dnn9-Qjzr6ONwOQlq-D-23" target="5dnn9-Qjzr6ONwOQlq-D-25">
          <mxGeometry relative="1" as="geometry" />
        </mxCell>
        <mxCell id="5dnn9-Qjzr6ONwOQlq-D-23" value="获取研报原文&lt;br&gt;写入对象存储" style="shape=parallelogram;html=1;strokeWidth=2;perimeter=parallelogramPerimeter;whiteSpace=wrap;rounded=1;arcSize=12;size=0.23;" vertex="1" parent="1">
          <mxGeometry x="90" y="440" width="100" height="60" as="geometry" />
        </mxCell>
        <mxCell id="5dnn9-Qjzr6ONwOQlq-D-24" style="edgeStyle=orthogonalEdgeStyle;rounded=0;orthogonalLoop=1;jettySize=auto;html=1;exitX=1;exitY=0.5;exitDx=0;exitDy=0;entryX=0;entryY=0.5;entryDx=0;entryDy=0;entryPerimeter=0;" edge="1" parent="1" source="5dnn9-Qjzr6ONwOQlq-D-25" target="5dnn9-Qjzr6ONwOQlq-D-19">
          <mxGeometry relative="1" as="geometry">
            <Array as="points">
              <mxPoint x="220" y="570" />
              <mxPoint x="220" y="375" />
            </Array>
          </mxGeometry>
        </mxCell>
        <mxCell id="5dnn9-Qjzr6ONwOQlq-D-25" value="获取研报&lt;br&gt;信息写入Deltalake&lt;br&gt;的Bronze层&lt;br&gt;公司研报原&lt;br&gt;数据表" style="shape=parallelogram;html=1;strokeWidth=2;perimeter=parallelogramPerimeter;whiteSpace=wrap;rounded=1;arcSize=12;size=0.23;" vertex="1" parent="1">
          <mxGeometry x="90" y="540" width="100" height="100" as="geometry" />
        </mxCell>
      </root>
    </mxGraphModel>
  </diagram>
</mxfile>
